# xmcd
#
# Track frame offsets: 
#        150
#        15882
#        30462
#        56300
#        82641
#        96655
#        110880
#        126189
#        150230
#        169058
#        185387
#        204571
#        230292
#
# Disc length: 3270 seconds
#
# Revision: 2
# Processed by: cddbd v1.5.2PL0 Copyright (c) Steve Scherf et al.
# Submitted via: ExactAudioCopy v1.0b3
#
DISCID=930cc40d
DTITLE=Asleep At The Wheel - Wide Awake! Live In Oklahoma 1986 CD1
DYEAR=2003
DGENRE=Western Swing
TTITLE0=Route 66
TTITLE1=Ain't Nobody Here But Us Chickens
TTITLE2=The Letter That Johnny Walker read
TTITLE3=Medley: Take Me Back To Tulsa - Stay A little Longer
TTITLE4=Write Your Own Song
TTITLE5=That's Your Red Wagon
TTITLE6=Deep Water
TTITLE7=Texas, Me And You
TTITLE8=Sally Goodin And Cumberland Gap
TTITLE9=Shout Wa Hey
TTITLE10=Bloodshot Eyes
TTITLE11=Ain't Goin' Down To The Well No More 
TTITLE12=Boogie Woogie
EXTD=
EXTT0=
EXTT1=
EXTT2=
EXTT3=
EXTT4=
EXTT5=
EXTT6=
EXTT7=
EXTT8=
EXTT9=
EXTT10=
EXTT11=
EXTT12=
PLAYORDER=
